<?xml version="1.0" encoding="UTF-8" standalone="no"?>
<!-- Created with Inkscape (http://www.inkscape.org/) -->

<svg
   xmlns:dc="http://purl.org/dc/elements/1.1/"
   xmlns:cc="http://creativecommons.org/ns#"
   xmlns:rdf="http://www.w3.org/1999/02/22-rdf-syntax-ns#"
   xmlns:svg="http://www.w3.org/2000/svg"
   xmlns="http://www.w3.org/2000/svg"
   xmlns:xlink="http://www.w3.org/1999/xlink"
   xmlns:sodipodi="http://sodipodi.sourceforge.net/DTD/sodipodi-0.dtd"
   xmlns:inkscape="http://www.inkscape.org/namespaces/inkscape"
   id="svg2"
   version="1.1"
   inkscape:version="0.91 r13725"
   width="2680.0083"
   height="2523.2524"
   viewBox="0 0 2680.0082 2523.2524"
   sodipodi:docname="better.svg">
  <metadata
     id="metadata8">
    <rdf:RDF>
      <cc:Work
         rdf:about="">
        <dc:format>image/svg+xml</dc:format>
        <dc:type
           rdf:resource="http://purl.org/dc/dcmitype/StillImage" />
        <dc:title></dc:title>
      </cc:Work>
    </rdf:RDF>
  </metadata>
  <defs
     id="defs6">
    <linearGradient
       inkscape:collect="always"
       id="linearGradient4187">
      <stop
         style="stop-color:#000000;stop-opacity:1;"
         offset="0"
         id="stop4189" />
      <stop
         style="stop-color:#000000;stop-opacity:0;"
         offset="1"
         id="stop4191" />
    </linearGradient>
    <radialGradient
       inkscape:collect="always"
       xlink:href="#linearGradient4187"
       id="radialGradient4193"
       cx="2302.3704"
       cy="1857.0446"
       fx="2302.3704"
       fy="1857.0446"
       r="1386.3636"
       gradientTransform="matrix(0.72316884,0,0,0.55738475,176.11537,923.47731)"
       gradientUnits="userSpaceOnUse" />
  </defs>
  <sodipodi:namedview
     pagecolor="#ffffff"
     bordercolor="#666666"
     borderopacity="1"
     objecttolerance="10"
     gridtolerance="10"
     guidetolerance="10"
     inkscape:pageopacity="0"
     inkscape:pageshadow="2"
     inkscape:window-width="1271"
     inkscape:window-height="1008"
     id="namedview4"
     showgrid="false"
     inkscape:zoom="2.5859904"
     inkscape:cx="1933.2836"
     inkscape:cy="2218.789"
     inkscape:window-x="26"
     inkscape:window-y="0"
     inkscape:window-maximized="0"
     inkscape:current-layer="g4173"
     fit-margin-top="0"
     fit-margin-left="0"
     fit-margin-right="0"
     fit-margin-bottom="0" />
  <g
     id="g4173"
     transform="matrix(1.4240152,0,0,1.4551061,-1104.9148,-1644.935)">
    <path
       sodipodi:nodetypes="csaasccsssassssscssssazaasssasssassssssssssscscssaasssssssssscsssasssssaasazaassscscazasc"
       inkscape:connector-curvature="0"
       id="path4138"
       d="m 2385.8691,2556.3288 c -87.2815,-40.8487 -104.0993,-48.1125 -148.0832,-66.8212 -52.8174,-22.4659 -145.8237,-53.1075 -219.5971,-77.1709 -75.7492,-24.7079 -152.8593,-45.1513 -228.8986,-68.9711 -107.9134,-33.8044 -214.4697,-79.2869 -322.5929,-104.9323 -97.278,-23.0733 -304.2563,-61.0244 -304.8769,-60.615 0,0 -8.3099,-9.8129 -39.6694,-12.767 -31.3596,-2.9541 -101.9316,-2.7416 -144.74693,-9.2418 -3.05154,-0.4633 -1.81829,-10.5161 -2.41326,-14.2264 -0.47014,-2.9313 -0.16137,-8.0326 5.84155,-9.3482 22.78584,-4.9938 46.14454,-8.0548 69.34064,-11.2794 16.5671,-2.3032 33.9853,-3.8367 49.8511,-5.7591 20.4815,-2.4814 46.8623,-8.1458 70.3555,-14.3939 26.6267,-7.0814 55.006,-15.5154 81.4088,-23.768 26.3291,-8.2295 49.0896,-16.6407 75.2429,-25.679 46.01,-15.9005 94.3032,-35.4125 139.0931,-55.9169 14.5756,-6.6725 42.0539,-19.7271 42.0539,-19.7271 0,0 31.4163,-15.1754 45.759,-21.9373 30.9063,-14.5706 57.0142,-27.5113 87.1276,-44.4074 42.9098,-24.0759 87.5531,-47.0622 129.6375,-73.2496 44.4011,-27.6291 88.3787,-61.173 131.3409,-92.0521 37.1233,-26.6824 73.3604,-54.3974 107.5713,-84.5032 15.3056,-13.4691 30.3951,-29.2407 43.5637,-42.8821 13.1686,-13.6414 22.3118,-22.766 32.4499,-35.0216 13.8707,-16.7676 26.8542,-34.3055 38.6967,-52.5324 7.5696,-11.6503 14.0236,-23.2142 20.6054,-36.2045 5.8938,-11.6324 8.9073,-22.8844 13.1115,-34.9554 5.1245,-14.7126 8.2649,-27.4809 9.5321,-42.5279 1.0374,-12.3165 -0.4462,-23.2928 -3.6516,-34.3789 -4.0081,-13.8624 -9.2936,-26.1117 -19.1271,-38.9562 -7.961,-10.3985 -15.9124,-19.2436 -25.5351,-27.239 -16.4247,-13.6471 -39.7572,-28.9028 -58.0104,-38.4072 -22.8845,-11.9159 -27.2492,-15.1792 -41.898,-20.3749 -19.9751,-7.0849 -49.5551,-11.2878 -61.9594,-14.4571 -37.4399,-9.5655 -77.9742,-14.914 -116.0716,-18.9613 -48.9031,-5.1954 -91.8694,-10.5151 -140.9535,-10.8332 -32.9224,-0.2134 -120.096,3.3187 -181.1918,8.2029 -36.4449,2.9136 -69.8835,7.1299 -106.0703,13.1992 -31.3572,5.2591 -63.2107,11.4349 -94.1047,19.8768 -39.3439,10.7505 -78.9032,23.0722 -117.8337,36.4476 -27.486,9.4433 -52.4721,21.5621 -79.1776,33.9378 -27.8129,12.8891 -50.7129,26.946 -76.8247,44.4075 -20.1824,13.4964 -42.1592,30.599 -60.84359,47.0378 -18.28642,16.0886 -35.22677,31.0772 -51.43294,50.2443 -17.77102,21.0177 -49.03988,61.9961 -49.03988,61.9961 0,0 -15.01441,26.1927 -15.77894,40.6972 -0.41596,7.8924 4.63058,25.0659 4.63058,25.0659 0,0 5.16164,12.597 11.75401,16.5553 17.44107,10.4722 41.77276,-1.6957 57.31702,12.5979 1.88858,1.7366 3.05766,4.9324 3.96783,7.7824 0.39236,1.2291 0.56226,2.5719 0.6031,3.8914 0.0462,1.5285 -0.41846,4.56 -0.41846,4.56 -0.34119,1.6461 -0.67284,3.3473 -1.38422,4.8033 -1.91006,3.9102 -4.11956,8.2551 -7.51409,10.0931 -4.82611,2.6131 -10.60033,0.9272 -15.81932,0 -19.20421,-3.4122 -40.25677,-6.0279 -55.83097,-20.2623 -12.91169,-11.8011 -23.89236,-29.9972 -26.42947,-49.6628 -2.58068,-20.0036 4.82947,-40.8548 12.83088,-58.4873 18.34205,-40.4198 48.88307,-70.8789 77.33922,-101.1734 24.33339,-25.9055 51.21607,-48.3254 79.09644,-68.0976 43.3274,-30.7267 89.1365,-56.4917 136.0462,-77.8257 25.6802,-11.6792 79.0966,-27.239 79.0966,-27.239 0,0 74.4654,-24.4414 112.3171,-33.076 43.4092,-9.9021 88.8911,-20.8317 132.8419,-25.978 45.2207,-5.2951 90.64,-8.8689 136.0461,-10.4909 43.2212,-1.5441 85.48,-0.8056 128.1769,0.7626 32.2187,1.1835 64.3911,4.0363 96.4979,6.5217 43.4131,3.3605 86.9998,7.4206 129.7184,17.5108 34.9268,8.2496 69.4653,19.8594 102.8256,35.0215 25.6677,11.666 51.5269,24.2378 74.3508,42.8042 17.1302,13.9348 34.107,29.8852 45.8759,50.5867 9.7633,17.1735 16.5098,38.0772 18.9833,58.3692 2.2957,18.8338 0.1068,38.2575 -4.0963,56.7662 -5.1668,22.7524 -15.8668,44.6782 -25.6185,65.205 -14.4795,30.4789 -32.0442,57.2732 -51.2037,83.8697 -20.8291,28.9144 -42.1516,55.2083 -68.9496,81.8091 -26.7982,26.6006 -62.034,49.3077 -93.7569,73.0568 -32.3051,24.1849 -64.9356,47.9753 -98.3166,70.6847 -44.0077,29.939 -88.6072,58.8194 -134.3412,86.3855 -55.9256,33.709 -110.539,60.9051 -168.6923,88.3256 -47.3851,22.3429 -102.2615,47.1199 -151.0712,65.7129 -72.4794,27.6096 -266.6165,69.9611 -266.6165,69.9611 0,0 256.3721,47.932 361.8669,77.3393 92.3292,25.7373 272.9035,86.5268 272.9035,86.5268 0,0 223.8947,67.5164 334.5583,105.119 61.6786,20.9579 132.3988,43.3821 183.5041,67.1247 51.1053,23.7428 88.1519,37.1968 131.1311,58.1063 56.8427,27.6542 125.5749,54.9088 167.4071,88.9686 36.9425,30.079 -38.2339,20.542 -56.6191,7.1545"
       style="fill:#000000;fill-opacity:1;fill-rule:evenodd;stroke:url(#radialGradient4193);stroke-width:0.80200565px;stroke-linecap:butt;stroke-linejoin:miter;stroke-opacity:0.94117647" />
    <path
       sodipodi:nodetypes="sssssacaassssssssacaazzss"
       inkscape:connector-curvature="0"
       id="path4140"
       d="m 1106.1255,1421.4454 c 0.9798,-27.3338 28.0858,-32.1742 31.1826,-19.495 11.1425,45.6207 19.3271,100.7142 20.8523,133.8525 0.6039,13.1183 5.6952,136.6619 6.3467,176.2341 1.1645,70.7198 -0.5052,146.4469 -0.6973,218.7521 -0.2178,81.9937 0.8395,163.9085 -2.0922,245.8141 -0.6597,18.4334 -3.4872,55.2518 -3.4872,55.2518 0,0 -6.9272,117.9917 -8.6928,177.0312 -1.6631,55.6135 -1.224,111.2551 -1.7888,166.883 -0.1808,17.8126 -0.506,53.1651 -0.5123,53.438 -1.4606,60.3966 -1.2889,123.0302 -1.046,126.0136 0.3304,4.0594 0.8536,5.8719 2.0589,9.5426 1.1217,3.4165 1.4539,4.5687 3.1997,8.5287 2.2167,5.0291 2.0171,6.8265 1.9178,10.2563 -0.12,4.1519 -5.7993,7.9641 -10.81,8.8798 -10.6161,1.94 -22.1884,-0.039 -28.9602,-6.9278 -9.1571,-9.3144 -6.97,-28.4328 -8.3692,-42.8483 -8.001,-82.4363 -1.3597,-165.3868 0,-248.0692 1.1626,-70.6809 6.9742,-211.9865 6.9742,-211.9865 0,0 2.8173,-102.2341 4.1846,-153.352 2.1183,-79.1961 5.8838,-158.3764 6.2271,-237.5905 0.3727,-85.9798 -1.8563,-197.5161 -4.5228,-257.9149 -2.6667,-60.399 -5.6969,-70.0373 -7.3999,-104.5122 -1.7027,-34.4749 -6.9181,-42.147 -5.7622,-74.3876 z"
       style="fill:#000000;fill-opacity:1;fill-rule:evenodd;stroke:#000000;stroke-width:1.14661539px;stroke-linecap:butt;stroke-linejoin:miter;stroke-opacity:1" />
    <path
       sodipodi:nodetypes="ssssssssscssscsaaassczzss"
       inkscape:connector-curvature="0"
       id="path4142"
       d="m 1337.3731,1328.1273 c 2.8375,-3.6768 8.9265,-5.7721 14.2034,-5.7773 7.5615,-0.01 19.432,2.0383 20.3764,8.238 2.3322,15.31 11.4159,61.156 15.8813,91.869 4.3357,29.8213 8.8208,59.6813 10.5876,89.6816 1.2008,20.3912 4.4954,40.8516 5.6149,61.246 2.208,40.2255 6.2551,80.164 7.6195,120.3046 1.4864,43.7302 4.2875,87.1948 4.358,132.7881 0.07,45.5932 1.9375,84.5317 2.1927,141.4048 0.2552,56.873 -3.9038,198.276 -3.9038,198.276 0,0 2.2211,179.1777 1.5781,212.1131 -0.4897,25.0831 0.1101,164.7251 0.4541,247.8724 0.1447,35.0051 4.4138,67.0573 8.4957,101.8997 1.9848,16.9423 8.5135,51.0082 8.5135,51.0082 4.2754,17.992 10.0126,37.9649 2.664,48.0247 -3.0746,4.2091 -10.993,4.5487 -16.9413,4.6417 -5.2856,0.083 -11.4069,-0.6355 -15.2321,-3.6511 -13.1016,-10.3286 -13.8866,-27.8264 -17.5724,-42.4765 -7.6015,-30.2137 -4.8155,-47.6087 -9.016,-92.2793 -2.1917,-23.307 -4.4111,-46.6294 -5.2938,-69.9954 -7.5161,-198.9525 0,-597.1483 0,-597.1483 0,0 1.0262,-133.333 -0.3211,-215.7749 -1.3474,-82.4419 -7.8805,-201.1451 -14.9456,-279.3409 -7.0651,-78.1958 -23.0325,-181.7019 -22.7823,-189.6634 0.2274,-7.2356 1.7884,-11.0828 3.4692,-13.2608 z"
       style="fill:#000000;fill-opacity:1;fill-rule:evenodd;stroke:#000000;stroke-width:1.09996641px;stroke-linecap:butt;stroke-linejoin:miter;stroke-opacity:1" />
  </g>
</svg>
