<?xml version="1.0" encoding="UTF-8" standalone="no"?>
<!-- Created with Inkscape (http://www.inkscape.org/) -->

<svg
   xmlns:dc="http://purl.org/dc/elements/1.1/"
   xmlns:cc="http://creativecommons.org/ns#"
   xmlns:rdf="http://www.w3.org/1999/02/22-rdf-syntax-ns#"
   xmlns:svg="http://www.w3.org/2000/svg"
   xmlns="http://www.w3.org/2000/svg"
   xmlns:sodipodi="http://sodipodi.sourceforge.net/DTD/sodipodi-0.dtd"
   xmlns:inkscape="http://www.inkscape.org/namespaces/inkscape"
   id="svg2"
   version="1.1"
   inkscape:version="0.91 r13725"
   width="15565.089"
   height="11398.979"
   viewBox="0 0 15565.088 11398.979"
   sodipodi:docname="better.svg">
  <metadata
     id="metadata8">
    <rdf:RDF>
      <cc:Work
         rdf:about="">
        <dc:format>image/svg+xml</dc:format>
        <dc:type
           rdf:resource="http://purl.org/dc/dcmitype/StillImage" />
        <dc:title />
      </cc:Work>
    </rdf:RDF>
  </metadata>
  <defs
     id="defs6" />
  <sodipodi:namedview
     pagecolor="#ffffff"
     bordercolor="#666666"
     borderopacity="1"
     objecttolerance="10"
     gridtolerance="10"
     guidetolerance="10"
     inkscape:pageopacity="0"
     inkscape:pageshadow="2"
     inkscape:window-width="1920"
     inkscape:window-height="1017"
     id="namedview4"
     showgrid="false"
     inkscape:zoom="0.080812201"
     inkscape:cx="9435.2072"
     inkscape:cy="5907.0597"
     inkscape:window-x="-8"
     inkscape:window-y="-8"
     inkscape:window-maximized="1"
     inkscape:current-layer="g4140"
     fit-margin-top="0"
     fit-margin-left="0"
     fit-margin-right="0"
     fit-margin-bottom="0"
     inkscape:showpageshadow="false" />
  <g
     id="g4173"
     transform="matrix(1.4240152,0,0,1.4551061,4809.5312,3113.0791)">
    <g
       id="g4140"
       transform="matrix(6.2029177,0,0,4.7402951,-8575.6189,-7731.455)">
      <path
         style="fill:#000000;fill-opacity:1;fill-rule:evenodd;stroke:#000000;stroke-width:0.80200565px;stroke-linecap:butt;stroke-linejoin:miter;stroke-opacity:0"
         d="m 2385.8691,2569.3353 c -87.2815,-40.8487 -98.4045,-44.245 -148.0832,-64.5149 -72.7614,-29.6881 -145.88,-58.0735 -219.5971,-83.6038 -75.8135,-26.2564 -152.4464,-48.4884 -228.8986,-71.5082 -107.3241,-32.3155 -214.6842,-64.5548 -322.5929,-93.5022 -101.2973,-27.1738 -202.4821,-55.9664 -304.8769,-75.2484 -14.1952,-2.6731 -28.552,-3.674 -42.8215,-5.591 -47.2129,-6.3427 -98.7795,-13.0571 -141.59483,-19.5573 -3.05154,-0.4633 -1.81829,-10.5161 -2.41326,-14.2264 -0.47014,-2.9313 -0.16137,-8.0326 5.84155,-9.3482 22.78584,-4.9938 45.53764,-7.4117 68.28994,-11.2794 16.9757,-2.8857 33.9806,-5.528 50.9018,-8.8986 23.5241,-4.6859 47.0067,-9.787 70.3555,-15.7394 27.2717,-6.9525 54.4006,-14.8462 81.4088,-23.3195 25.2108,-7.9094 50.2975,-16.4924 75.2429,-25.679 46.6358,-17.1745 92.9999,-35.5915 139.0931,-55.0199 14.1057,-5.9456 28.176,-12.0623 42.0539,-18.8301 15.4203,-7.5199 30.4883,-16.175 45.759,-24.1798 29.0091,-15.2064 58.278,-29.6082 87.1276,-45.3044 43.5147,-23.6751 87.0641,-47.3655 129.6375,-73.6981 44.4943,-27.5207 88.5865,-56.2929 131.3409,-88.0156 35.3703,-26.2439 69.1713,-55.8227 103.3685,-84.5032 16.0459,-13.4573 34.5979,-27.4467 47.7665,-41.0881 13.1686,-13.6414 21.7744,-27.3543 32.4499,-41.3006 11.654,-15.2245 23.9236,-29.7828 34.4939,-46.2534 7.3178,-11.4025 14.0724,-23.4748 19.905,-36.2045 5.1082,-11.1488 9.8028,-22.7433 13.1115,-34.9554 3.7183,-13.7239 7.0938,-28.0078 7.4307,-42.5279 0.2693,-11.6041 -1.2667,-23.4627 -4.352,-34.3789 -3.6397,-12.8774 -8.8794,-25.538 -16.3253,-35.3682 -11.054,-14.5935 -26.4421,-22.5746 -40.2447,-32.621 -12.932,-9.4127 -26.1822,-18.1806 -39.7985,-25.8492 -13.1996,-7.4339 -26.7306,-13.983 -40.4971,-19.4779 -20.3245,-8.1125 -41.0144,-14.9583 -61.9594,-19.8391 -38.3185,-8.9293 -77.2336,-13.4266 -116.0716,-17.1673 -46.8811,-4.5154 -93.9414,-6.8183 -140.9535,-6.3482 -60.4734,0.6047 -120.8962,5.8267 -181.1918,11.7909 -35.4411,3.5057 -70.8623,7.8277 -106.0703,14.0962 -32.4786,5.7825 -64.8011,13.129 -96.9065,21.6708 -38.6201,10.2751 -76.8286,22.9775 -115.0319,35.5506 -26.4959,8.7201 -53.4605,15.7124 -79.1776,27.6588 -25.0316,11.6279 -49.2456,26.2853 -72.6219,42.6135 -19.1886,13.403 -37.5282,28.8425 -55.23997,45.2438 -18.88781,17.4903 -36.73716,36.8037 -54.23477,56.5233 -14.27315,16.0857 -29.32267,31.4616 -41.33484,50.3351 -6.84233,10.7507 -13.31618,22.3586 -17.17986,35.3152 -2.61631,8.7736 -5.47871,18.6223 -3.77492,27.7569 1.24941,6.6985 3.06026,12.597 9.65263,16.5553 17.44107,10.4722 38.97093,-7.0777 54.51519,7.2159 1.88858,1.7366 2.94521,8.6467 3.96783,13.1644 0.28751,1.2701 0.56226,2.5719 0.6031,3.8914 0.0462,1.5285 -0.41846,4.56 -0.41846,4.56 -0.34119,1.6461 -0.67284,3.3473 -1.38422,4.8033 -1.91006,3.9102 -4.11956,8.2551 -7.51409,10.0931 -4.82611,2.6131 -10.60033,0.9272 -15.81932,0 -19.20421,-3.4122 -40.25677,-1.5429 -55.83097,-15.7773 -12.91169,-11.8011 -23.89236,-34.4822 -26.42947,-54.1478 -2.58068,-20.0036 4.82947,-40.8548 12.83088,-58.4873 18.34205,-40.4198 48.88307,-70.8789 77.33922,-101.1734 24.33339,-25.9055 51.21607,-48.3254 79.09644,-68.0976 43.3274,-30.7267 89.1365,-56.4917 136.0462,-77.8257 25.6802,-11.6792 79.0966,-27.239 79.0966,-27.239 0,0 74.4654,-24.4414 112.3171,-33.076 43.4092,-9.9021 88.8911,-20.8317 132.8419,-25.978 45.2207,-5.2951 90.64,-8.8689 136.0461,-10.4909 43.2212,-1.5441 85.48,-0.8056 128.1769,0.7626 32.2187,1.1835 64.3911,4.0363 96.4979,6.5217 43.4131,3.3605 86.9998,7.4206 129.7184,17.5108 34.9268,8.2496 69.4653,19.8594 102.8256,35.0215 25.6677,11.666 51.5269,24.2378 74.3508,42.8042 17.1302,13.9348 34.107,29.8852 45.8759,50.5867 9.7633,17.1735 16.5098,38.0772 18.9833,58.3692 2.2957,18.8338 0.1068,38.2575 -4.0963,56.7662 -5.1668,22.7524 -15.8668,44.6782 -25.6185,65.205 -14.4795,30.4789 -32.0442,57.2732 -51.2037,83.8697 -20.8291,28.9144 -42.1516,55.2083 -68.9496,81.8091 -26.7982,26.6006 -62.034,49.3077 -93.7569,73.0568 -32.3051,24.1849 -64.9356,47.9753 -98.3166,70.6847 -44.0077,29.939 -88.6072,58.8194 -134.3412,86.3855 -55.9256,33.709 -110.539,60.9051 -168.6923,88.3256 -47.3851,22.3429 -102.2615,47.1199 -151.0712,65.7129 -72.4794,27.6096 -266.6165,69.9611 -266.6165,69.9611 0,0 256.3721,47.932 361.8669,77.3393 92.3292,25.7373 272.9035,86.5268 272.9035,86.5268 0,0 223.8947,67.5164 334.5583,105.119 61.6786,20.9579 132.3988,43.3821 183.5041,67.1247 51.1053,23.7428 88.1519,37.1968 131.1311,58.1063 56.8427,27.6542 125.5749,54.9088 167.4071,88.9686 36.9425,30.079 -38.2339,29.512 -56.6191,16.1245"
         id="path4138"
         inkscape:connector-curvature="0"
         sodipodi:nodetypes="caaaaaasssaaaaaaaaaaaazaaaaaaaaaaaaaaaaaaaaaaaassaasssssssssscsssasssssaasazaassscscazasc" />
      <path
         style="fill:#000000;fill-opacity:1;fill-rule:evenodd;stroke:#000000;stroke-width:1.14661539px;stroke-linecap:butt;stroke-linejoin:miter;stroke-opacity:1"
         d="m 1106.1255,1421.4454 c 0.9798,-27.3338 28.0858,-32.1742 31.1826,-19.495 11.1425,45.6207 19.3271,100.7142 20.8523,133.8525 0.6039,13.1183 5.6952,136.6619 6.3467,176.2341 1.1645,70.7198 -0.5052,146.4469 -0.6973,218.7521 -0.2178,81.9937 0.8395,163.9085 -2.0922,245.8141 -0.6597,18.4334 -3.4872,55.2518 -3.4872,55.2518 0,0 -6.9272,117.9917 -8.6928,177.0312 -1.6631,55.6135 -1.224,111.2551 -1.7888,166.883 -0.1808,17.8126 -0.506,53.1651 -0.5123,53.438 -1.4606,60.3966 -1.2889,123.0302 -1.046,126.0136 0.3304,4.0594 0.8536,5.8719 2.0589,9.5426 1.1217,3.4165 1.4539,4.5687 3.1997,8.5287 2.2167,5.0291 2.0171,6.8265 1.9178,10.2563 -0.12,4.1519 -5.7993,7.9641 -10.81,8.8798 -10.6161,1.94 -22.1884,-0.039 -28.9602,-6.9278 -9.1571,-9.3144 -6.97,-28.4328 -8.3692,-42.8483 -8.001,-82.4363 -1.3597,-165.3868 0,-248.0692 1.1626,-70.6809 6.9742,-211.9865 6.9742,-211.9865 0,0 2.8173,-102.2341 4.1846,-153.352 2.1183,-79.1961 5.8838,-158.3764 6.2271,-237.5905 0.3727,-85.9798 -1.8563,-197.5161 -4.5228,-257.9149 -2.6667,-60.399 -5.6969,-70.0373 -7.3999,-104.5122 -1.7027,-34.4749 -6.9181,-42.147 -5.7622,-74.3876 z"
         id="path4140"
         inkscape:connector-curvature="0"
         sodipodi:nodetypes="sssssacaassssssssacaazzss" />
      <path
         style="fill:#000000;fill-opacity:1;fill-rule:evenodd;stroke:#000000;stroke-width:1.09996641px;stroke-linecap:butt;stroke-linejoin:miter;stroke-opacity:1"
         d="m 1337.3731,1328.1273 c 2.8375,-3.6768 8.9265,-5.7721 14.2034,-5.7773 7.5615,-0.01 19.432,2.0383 20.3764,8.238 2.3322,15.31 11.4159,61.156 15.8813,91.869 4.3357,29.8213 8.8208,59.6813 10.5876,89.6816 1.2008,20.3912 4.4954,40.8516 5.6149,61.246 2.208,40.2255 6.2551,80.164 7.6195,120.3046 1.4864,43.7302 4.2875,87.1948 4.358,132.7881 0.07,45.5932 1.9375,84.5317 2.1927,141.4048 0.2552,56.873 -3.9038,198.276 -3.9038,198.276 0,0 2.2211,179.1777 1.5781,212.1131 -0.4897,25.0831 0.1101,164.7251 0.4541,247.8724 0.1447,35.0051 4.4138,67.0573 8.4957,101.8997 1.9848,16.9423 8.5135,51.0082 8.5135,51.0082 4.2754,17.992 10.0126,37.9649 2.664,48.0247 -3.0746,4.2091 -10.993,4.5487 -16.9413,4.6417 -5.2856,0.083 -11.4069,-0.6355 -15.2321,-3.6511 -13.1016,-10.3286 -13.8866,-27.8264 -17.5724,-42.4765 -7.6015,-30.2137 -4.8155,-47.6087 -9.016,-92.2793 -2.1917,-23.307 -4.4111,-46.6294 -5.2938,-69.9954 -7.5161,-198.9525 0,-597.1483 0,-597.1483 0,0 1.0262,-133.333 -0.3211,-215.7749 -1.3474,-82.4419 -7.8805,-201.1451 -14.9456,-279.3409 -7.0651,-78.1958 -23.0325,-181.7019 -22.7823,-189.6634 0.2274,-7.2356 1.7884,-11.0828 3.4692,-13.2608 z"
         id="path4142"
         inkscape:connector-curvature="0"
         sodipodi:nodetypes="ssssssssscssscsaaassczzss" />
    </g>
  </g>
</svg>
